<?xml version="1.0" encoding="iso-8859-1"?>
<!-- Generator: Adobe Illustrator 19.0.0, SVG Export Plug-In . SVG Version: 6.00 Build 0)  -->
<svg version="1.1" id="Capa_1" xmlns="http://www.w3.org/2000/svg" xmlns:xlink="http://www.w3.org/1999/xlink" x="0px" y="0px"
	 viewBox="0 0 422.4 422.4" style="enable-background:new 0 0 422.4 422.4;" xml:space="preserve">
<g>
	<g>
		<path fill="#FCF5EE" d="M250.4,40.4c-12-13.2-22.4-25.6-30.8-36c-2-2.8-4.8-4.4-8.4-4.4c-3.6,0-6.8,2-8.4,4.4c-8,10-18.8,22.4-30.4,36
			C119.2,102,46,186.4,46,257.2C46,302.8,64.4,344,94.4,374s71.2,48.4,116.8,48.4c45.6,0,86.8-18.4,116.8-48.4s48.4-71.2,48.4-116.8
			C376.4,186.4,303.2,101.6,250.4,40.4z M201.2,164.8l-36.4-36.4c-4-4-10.4-4-14.4,0s-4,10.4,0,14.4l50.8,50.8v121.2l-86.4-86.4
			c-4-4-10.4-4-14.4,0s-4,10.4,0,14.4l100.8,100.4v58.4c-36-2.4-68.4-18-92.4-42c-26-26-42.4-62.4-42.4-102.4
			c0-63.2,70.4-144.8,121.2-203.6c4.8-5.6,9.2-10.8,13.6-15.6V164.8z M313.6,359.6c-24,24-56.4,39.6-92.4,42V38
			c4.4,5.2,8.8,10.4,13.6,15.6c50.8,58.8,121.2,140,121.2,203.6C356,297.2,339.6,333.6,313.6,359.6z"/>
	</g>
</g>
<g>
	<g>
		<path fill="#FCF5EE" d="M310,281.6c-5.6-1.2-10.8,2-12.4,7.2c-2.8,10.8-7.6,20.8-14,29.6c-6.4,8.8-14.4,16.8-23.6,22.8c-4.8,3.2-6,9.2-2.8,14
			c3.2,4.8,9.6,6,14.4,3.2c11.6-7.6,21.2-16.8,28.8-28c7.6-10.8,13.6-23.2,16.8-36.4C318.4,288.4,315.2,283.2,310,281.6z"/>
	</g>
</g>
<g>
</g>
<g>
</g>
<g>
</g>
<g>
</g>
<g>
</g>
<g>
</g>
<g>
</g>
<g>
</g>
<g>
</g>
<g>
</g>
<g>
</g>
<g>
</g>
<g>
</g>
<g>
</g>
<g>
</g>
</svg>
