<svg fill=" #FCF5EE" height="512" viewBox="0 0 60 58" width="512" xmlns="http://www.w3.org/2000/svg"><g id="029---Beetle" transform="translate(-1)"><path id="Shape" d="m57.75 36.33c-1.5195926-1.5096544-3.8319931-1.8836601-5.75-.93l-1.08.54c-.3557824-3.4111553-1.5853875-6.6728809-3.57-9.47l2.65-2.31c.7628368-.6545421 1.8027808-.883555 2.77-.61l4.95 1.45c.5522847.1546397 1.1253603-.1677153 1.28-.72s-.1677153-1.1253603-.72-1.28l-4.93-1.41c-1.6133408-.4652245-3.3524747-.0896016-4.63 1l-2.64 2.31c-1.7601146-2.0241226-3.9094121-3.6735044-6.32-4.85.4534401-1.9051299.2599387-3.9069894-.55-5.69.8865614-1.2132039 1.0184154-2.8209248.3413678-4.1623649-.6770476-1.34144002-2.0487698-2.19028056-3.5513678-2.1976351 1.0152615-2.41591133 2.6004291-4.55005479 4.62-6.22.4289082-.34345392.5003569-.96863007.16-1.4-.3434539-.42890818-.9686301-.50035688-1.4-.16-2.7335565 2.26575564-4.7602797 5.2676659-5.84 8.65-.1568008.12548008-.3070018.25899201-.45.4-1.3749593-.32000742-2.8050407-.32000742-4.18 0-.1429982-.14100799-.2931992-.27451992-.45-.4-1.0797203-3.3823341-3.1064435-6.38424436-5.84-8.65-.4313699-.34035688-1.0565461-.26890818-1.4.16-.3403569.43136993-.2689082 1.05654608.16 1.4 2.0195709 1.66994521 3.6047385 3.80408867 4.62 6.22-1.502598.00735454-2.8743202.85619508-3.5513678 2.1976351-.6770476 1.3414401-.5451936 2.949161.3413678 4.1623649-.8106845 1.7828111-1.0042103 3.7849232-.55 5.69-2.4105879 1.1764956-4.5598854 2.8258774-6.32 4.85l-2.64-2.26c-1.2775253-1.0896016-3.0166592-1.4652245-4.63-1l-4.93 1.36c-.55228475.1546397-.87463973.7277153-.72 1.28s.72771525.8746397 1.28.72l4.93-1.41c.9672192-.273555 2.0071632-.0445421 2.77.61l2.7 2.31c-1.9846125 2.7971191-3.2142176 6.0588447-3.57 9.47l-1.11-.58c-1.92572214-.968248-4.2551892-.5934375-5.78.93l-3 3c-.26983575.2983847-.33459232.7294152-.16434631 1.0939162.17024602.3645011.54234218.5914926.94434631.5760838.26580298.0015368.52128117-.1028135.71-.29l3-3c.91067378-.9144413 2.30412096-1.1439976 3.46-.57l1.88.94c.0129091 3.2724904.8338864 6.4911338 2.39 9.37l-3.12.86c-1.92423703.5217589-3.35460103 2.1368127-3.64 4.11l-.68 4.44c-.07731986.5522847.30771525 1.0626801.86 1.14s1.06268014-.3077153 1.14-.86l.63-4.4c.16760559-1.1816863 1.01973511-2.1516217 2.17-2.47l3.69-1c3.7286959 5.4432772 9.9020883 8.6973454 16.5 8.6973454s12.7713041-3.2540682 16.5-8.6973454l3.69 1c1.1541713.3149935 2.0108507 1.2856348 2.18 2.47l.63 4.4c.0773199.5522847.5877153.9373199 1.14.86s.9373199-.5877153.86-1.14l-.63-4.4c-.285399-1.9731873-1.715763-3.5882411-3.64-4.11l-3.12-.86c1.5595933-2.8779654 2.3840186-6.0966591 2.4-9.37l1.88-.94c1.155879-.5739976 2.5493262-.3444413 3.46.57l3 3c.1823042.1607777.4169276.2496502.66.25.4062651.0023626.77358-.2413038.929371-.6165185.1557909-.3752147.0690889-.807391-.219371-1.0934815zm-19.75-24.33c0 1.1045695-.8954305 2-2 2s-2-.8954305-2-2 .8954305-2 2-2 2 .8954305 2 2zm-12-2c1.1045695 0 2 .8954305 2 2s-.8954305 2-2 2-2-.8954305-2-2 .8954305-2 2-2zm-1.59 5.67c1.3862192.5979071 2.9909791.3644252 4.1493506-.6037028s1.6729997-2.5059596 1.3306494-3.9762972c.7351351-.12 1.4848649-.12 2.22 0-.3423503 1.4703376.1722779 3.0081692 1.3306494 3.9762972s2.7631314 1.2016099 4.1493506.6037028c.41821 1.1452432.5184247 2.3823758.29 3.58-4.4356123-1.6647355-9.3243877-1.6647355-13.76 0-.2284247-1.1976242-.12821-2.4347568.29-3.58zm5.59 4.38v20.95c0 4.9705627-4.0294373 9-9 9h-3.38c-4.5946891-5.151784-5.838376-12.4774576-3.2013672-18.8569741 2.6370089-6.3795166 8.6901545-10.6890037 15.5813672-11.0930259zm-10.29 31.95h1.29c4.306593-.0040391 8.2147226-2.5208746 10-6.44 1.7852774 3.9191254 5.693407 6.4359609 10 6.44h1.29c-6.5814691 5.3344868-15.9985309 5.3344868-22.58 0zm24.67-2h-3.38c-4.9705627 0-9-4.0294373-9-9v-20.95c6.8912127.4040222 12.9443583 4.7135093 15.5813672 11.0930259 2.6370088 6.3795165 1.3933219 13.7051901-3.2013672 18.8569741z"/><path id="Shape" d="m27 26c.5522847 0 1-.4477153 1-1v-1c0-.5522847-.4477153-1-1-1s-1 .4477153-1 1v1c0 .5522847.4477153 1 1 1z"/><path id="Shape" d="m27 43c.5522847 0 1-.4477153 1-1v-13c0-.5522847-.4477153-1-1-1s-1 .4477153-1 1v13c0 .5522847.4477153 1 1 1z"/><path id="Shape" d="m35 23c-.5522847 0-1 .4477153-1 1v1c0 .5522847.4477153 1 1 1s1-.4477153 1-1v-1c0-.5522847-.4477153-1-1-1z"/><path id="Shape" d="m35 28c-.5522847 0-1 .4477153-1 1v13c0 .5522847.4477153 1 1 1s1-.4477153 1-1v-13c0-.5522847-.4477153-1-1-1z"/></g></svg>