<svg xmlns="http://www.w3.org/2000/svg"  height="512pt" version="1.1" viewBox="0 0 512 512" width="512pt">
<g id="regar" fill="#FCF5EE" >
<path  d="M 98.070312 479.734375 C 102.476562 482.476562 107.976562 482.742188 112.617188 480.460938 L 170.488281 452 L 309.6875 452 C 327.347656 467.863281 354.519531 467.332031 371.539062 450.3125 L 498.820312 323.03125 C 516.363281 305.488281 516.363281 276.9375 498.820312 259.394531 L 421.140625 181.714844 C 421.695312 176.171875 422 170.578125 422 165 C 422 74.019531 347.980469 0 257 0 C 166.019531 0 92 74.019531 92 165 C 92 206.5 107.3125 245.832031 135.214844 276.320312 C 137.355469 280.914062 134.121094 276.054688 219.589844 362 L 170.488281 362 L 112.617188 333.539062 C 107.96875 331.253906 102.46875 331.527344 98.070312 334.265625 C 93.675781 337.003906 91 341.820312 91 347 L 91 362.820312 C 57.320312 366.488281 26.125 382.421875 3.75 407.789062 C -1.730469 414 -1.136719 423.480469 5.078125 428.960938 C 11.328125 434.472656 20.804688 433.808594 26.25 427.632812 C 42.933594 408.71875 65.96875 396.546875 91 393.050781 L 91 423.484375 C 76.628906 426.355469 63.339844 433.339844 52.589844 443.847656 C 38.023438 458.085938 30 476.960938 30 497 C 30 505.285156 36.714844 512 45 512 C 53.285156 512 60 505.285156 60 497 C 60 477.71875 73.167969 460.8125 91 454.570312 L 91 467 C 91 472.179688 93.675781 476.996094 98.070312 479.734375 Z M 477.605469 301.820312 L 350.328125 429.097656 C 344.464844 434.960938 334.976562 434.960938 329.113281 429.097656 L 212.441406 312.425781 L 360.933594 163.933594 L 477.605469 280.605469 C 483.453125 286.453125 483.453125 295.972656 477.605469 301.820312 Z M 257 30 C 327.03125 30 384.773438 83.605469 391.367188 151.941406 L 329.113281 89.6875 C 323.257812 83.828125 313.757812 83.828125 307.902344 89.6875 L 150.113281 247.476562 C 131.894531 223.9375 122 195.171875 122 165 C 122 90.5625 182.558594 30 257 30 Z M 318.507812 121.507812 L 339.722656 142.722656 L 191.226562 291.214844 L 170.015625 270 Z M 279.589844 422 L 182 422 L 182 392 L 249.589844 392 Z M 121 371.09375 L 152 386.339844 L 152 427.660156 L 121 442.90625 Z M 121 371.09375 " style=" stroke:none;fill-rule:nonzero;fill:rgb(0%,0%,0%);fill-opacity:1;" />
</g>
</svg>