<svg id="SOLO" fill="#FCF5EE" stroke-width="1" enable-background="new 0 0 512 512" height="512" viewBox="0 0 512 512" width="512" xmlns="http://www.w3.org/2000/svg"><path d="m356.8 175.328c25.012 4.803 56.319-.903 77.869-22.453 15.142-15.141 13.768-37.707 5.179-57.504l12.515-12.515c2.929-2.929 2.929-7.678 0-10.606s-7.677-2.93-10.607 0l-12.512 12.512c-19.751-8.57-42.339-9.987-57.507 5.181-29.859 29.861-23.948 70.098-22.46 77.861.735 3.835 3.689 6.789 7.523 7.524zm25.544-74.779c10.155-10.155 25.49-7.478 35.3-4.187l-40.126 40.125c-2.929 2.929-2.929 7.678 0 10.606 2.929 2.929 7.677 2.929 10.607 0l40.124-40.123c3.291 9.809 5.969 25.143-4.186 35.297-21.34 21.34-49.463 20.355-60.648 18.924-1.43-11.181-2.409-39.304 18.929-60.642z"/><path d="m504.5 427.5h-24.168c-4.143 0-7.5 3.358-7.5 7.5s3.357 7.5 7.5 7.5h16.668v37c0 9.649-7.851 17.5-17.5 17.5h-442c-12.407 0-22.5-10.093-22.5-22.5v-32c104.074.001 325.833 0 432.96 0 4.143 0 7.5-3.358 7.5-7.5s-3.357-7.5-7.5-7.5h-125.102c7.839-12.458 12.042-26.905 12.042-41.93v-86.81c0-6.341-5.159-11.5-11.5-11.5h-44.9v-159.649c0-4.142-3.357-7.5-7.5-7.5s-7.5 3.358-7.5 7.5v193.389c0 4.136-3.364 7.5-7.5 7.5s-7.5-3.364-7.5-7.5v-262c0-4.136 3.364-7.5 7.5-7.5s7.5 3.364 7.5 7.5v36.5c0 4.142 3.357 7.5 7.5 7.5s7.5-3.358 7.5-7.5v-26.5h1.5c9.649 0 17.5-7.851 17.5-17.5v-34c0-9.649-7.851-17.5-17.5-17.5h-48c-9.649 0-17.5 7.851-17.5 17.5v34c0 9.649 7.851 17.5 17.5 17.5h1.5v218.26h-44.9c-6.341 0-11.5 5.159-11.5 11.5v20.739c0 4.142 3.358 7.5 7.5 7.5s7.5-3.358 7.5-7.5v-17.239h41.4v18.74c0 12.407 10.093 22.5 22.5 22.5 12.406 0 22.5-10.093 22.5-22.5v-18.74h41.4v83.31c0 15.533-5.546 30.303-15.682 41.93h-96.438c-10.135-11.627-15.68-26.397-15.68-41.93v-33.885c0-4.142-3.358-7.5-7.5-7.5s-7.5 3.358-7.5 7.5v33.885c0 15.025 4.203 29.473 12.041 41.93h-72.729l-4.249-11.692c3.615-3.2 8.812-8.366 13.21-14.925 8.797-13.119 11.02-26.733 6.427-39.373-14.424-39.695-53.383-51.358-61.044-53.292-3.788-.96-7.715.468-10.003 3.632-4.635 6.404-27.026 40.36-12.602 80.056 4.593 12.64 15.039 21.652 30.209 26.062 7.58 2.203 14.877 2.828 19.703 2.961l2.388 6.572h-92.951c-4.142 0-7.5 3.358-7.5 7.5v39.5c0 20.677 16.822 37.499 37.5 37.499h442c17.921 0 32.5-14.58 32.5-32.5v-44.5c0-4.142-3.357-7.5-7.5-7.5zm-275-376v-34c0-1.378 1.122-2.5 2.5-2.5h48c1.379 0 2.5 1.122 2.5 2.5v34c0 1.378-1.121 2.5-2.5 2.5h-2.06c-2.28-10.008-11.251-17.5-21.94-17.5s-19.66 7.492-21.94 17.5h-2.06c-1.378 0-2.5-1.122-2.5-2.5zm-167.25 335.283c-10.307-28.363 2.484-53.429 8.514-62.96 10.736 3.437 36.631 14.444 46.938 42.81 4.905 13.498-4.013 26.263-11.141 33.756l-19.38-53.334c-1.415-3.893-5.716-5.903-9.61-4.487-3.893 1.415-5.902 5.717-4.487 9.61l19.377 53.326c-10.276-1.172-25.31-5.232-30.211-18.721z"/></svg>