<svg id="shovel-and-rake" fill="#ECE7DA" enable-background="new 0 0 512 512" height="512" viewBox="0 0 512 512" width="512" xmlns="http://www.w3.org/2000/svg"><g><g><path d="m171.653 42.063c0-4.142-3.358-7.5-7.5-7.5h-48.012c-4.142 0-7.5 3.358-7.5 7.5s3.358 7.5 7.5 7.5h48.012c4.143 0 7.5-3.358 7.5-7.5z"/><path d="m403.454 42.063c0-4.142-3.358-7.5-7.5-7.5h-48.011c-4.142 0-7.5 3.358-7.5 7.5s3.358 7.5 7.5 7.5h48.011c4.142 0 7.5-3.358 7.5-7.5z"/><path d="m432.053 304.061-30.703-4.733c-1.047-.161-1.821-1.082-1.799-2.141.003-.139.002-.277-.003-.415l-.891-25.434v-86.425c0-4.142-3.358-7.5-7.5-7.5s-7.5 3.358-7.5 7.5v79.062h-23.418v-144.349h23.418v30.216c0 4.142 3.358 7.5 7.5 7.5s7.5-3.358 7.5-7.5v-34.741l32.448-38.103c5.613-6.591 8.704-14.988 8.704-23.644v-28.847c0-13.513-10.994-24.507-24.507-24.507h-86.707c-13.513 0-24.507 10.994-24.507 24.507v28.848c0 8.657 3.091 17.054 8.704 23.644l32.448 38.103v156.238l-.89 25.433c-.005.138-.006.276-.003.414.021 1.06-.752 1.98-1.8 2.142l-30.703 4.733c-19.472 3.001-33.605 19.48-33.605 39.182v96.811c0 34.493 9.314 58.787 9.934 61.32 2.125 6.433 7.876 10.601 14.651 10.62h.044c6.756 0 12.509-4.134 14.664-10.541 6.723-19.989 10.131-40.818 10.131-61.908v-81.988c0-3.434 2.463-6.305 5.856-6.828l11.875-1.83 1.841 90.766c.008 21.025 3.384 41.8 10.033 61.748v.001c2.143 6.427 7.905 10.58 14.68 10.58s12.537-4.153 14.68-10.581c6.649-19.947 10.024-40.708 10.032-61.707l1.842-90.807 11.875 1.83c3.394.523 5.856 3.394 5.856 6.828v82.242c0 34.581 9.264 58.497 10.032 61.613 2.143 6.428 7.905 10.581 14.68 10.581 11.679 0 14.672-10.68 14.746-10.78 6.613-19.84 9.967-40.503 9.967-61.417v-96.555c.001-19.702-14.133-36.18-33.605-39.181zm-112.965-250.707v-28.847c0-5.242 4.265-9.507 9.507-9.507h86.707c5.242 0 9.507 4.265 9.507 9.507v28.848c0 5.096-1.82 10.039-5.124 13.919l-31.81 37.354h-31.855l-31.81-37.354c-3.303-3.88-5.122-8.824-5.122-13.92zm131.571 386.443c0 19.298-3.094 38.366-9.199 56.678l-.065.194c-.069.209-.108.324-.449.324-.342 0-.38-.115-.446-.314l-.07-.212c-6.102-18.305-9.196-37.371-9.196-56.668v-82.244c0-10.888-7.81-19.994-18.572-21.653-12.784-1.918-12.924-2.115-14.825-2.115-7.776 0-14.159 6.221-14.317 14.03l-1.859 91.659c-.001.05-.001.101-.001.152 0 19.41-3.116 38.601-9.263 57.04-.149.45-.749.449-.899 0-6.146-18.44-9.263-37.645-9.263-57.081 0-.051 0-.102-.001-.152l-1.858-91.618c-.175-8.641-7.93-15.185-16.499-13.863l-12.642 1.948c-10.761 1.659-18.571 10.765-18.571 21.653v81.988c0 19.461-3.145 38.682-9.349 57.126-.147.438-.756.431-.897.002-.924-3.772-9.179-25.107-9.179-56.619v-96.811c0-12.247 8.786-22.491 20.89-24.357l30.703-4.733c8.368-1.29 14.569-8.59 14.514-17.033l.635-18.144h23.934l.636 18.143c-.055 8.444 6.146 15.744 14.514 17.034l30.703 4.733c12.105 1.866 20.89 12.109 20.89 24.357v96.556z"/><path d="m216.207 296.223-50.301-7.753c.251-4.888 1.106-21.26 1.123-21.932.002-.064.01-.127.01-.192v-151.46l32.266-37.888c5.613-6.59 8.704-14.987 8.704-23.644v-28.847c-.001-13.513-10.995-24.507-24.508-24.507h-86.707c-13.513 0-24.507 10.994-24.507 24.507v28.848c0 8.657 3.091 17.054 8.704 23.644l32.266 37.889c.002 29.417-.005 151.068.01 151.651.002.065-.003.13 0 .195l1.123 21.737-50.301 7.753c-10.283 1.585-17.747 10.287-17.747 20.692v24.117c0 4.142 3.358 7.5 7.5 7.5s7.5-3.358 7.5-7.5v-24.117c0-2.95 2.116-5.418 5.032-5.867l48.794-7.521 2.12 41.045c.004.083.01.166.017.249 1.628 19.151 5.249 38.197 10.762 56.611 3.586 11.975 20.581 11.968 24.163 0 5.513-18.413 9.133-37.46 10.762-56.611.007-.083.013-.166.017-.249l2.12-41.045 48.794 7.521c2.916.449 5.032 2.917 5.032 5.867v68.211c0 35.776-17.331 69.619-46.36 90.529l-27.336 19.689c-3.056 2.202-7.163 2.203-10.222 0l-27.335-19.689c-29.029-20.91-46.36-54.753-46.36-90.529v-9.023c0-4.142-3.358-7.5-7.5-7.5s-7.5 3.358-7.5 7.5v9.023c0 40.586 19.661 78.979 52.594 102.7l27.334 19.689c8.299 5.978 19.454 5.982 27.756 0l27.336-19.689c32.932-23.721 52.593-62.114 52.593-102.7v-68.211c-.001-10.406-7.465-19.108-17.748-20.693zm-87.951-176.597h23.782v139.22h-23.782zm-40.969-66.272v-28.847c0-5.242 4.265-9.507 9.507-9.507h86.707c5.242 0 9.507 4.265 9.507 9.507v28.848c0 5.096-1.819 10.039-5.123 13.919l-31.81 37.354h-31.855l-31.81-37.354c-3.303-3.881-5.123-8.824-5.123-13.92zm60.748 290.318c-1.307 15.286-3.955 30.501-7.887 45.345-3.932-14.845-6.58-30.059-7.887-45.345l-2.541-49.182c-.001-.012-.001-.025-.002-.037l-1.064-20.606h22.988l-1.064 20.606c-.001.013-.001.025-.002.037z"/></g></g></svg>