<svg fill="#FCF5EE" height="512pt" viewBox="-141 0 512 512.00007" width="512pt" xmlns="http://www.w3.org/2000/svg"><path d="m85.3125 0c-32.964844.0390625-59.679688 26.753906-59.71875 59.71875v306.042969c-33.648438 32.980469-34.1875 86.996093-1.207031 120.644531 32.984375 33.648438 86.996093 34.1875 120.644531 1.207031 33.648438-32.984375 34.1875-86.996093 1.207031-120.644531-.398437-.40625-.800781-.808594-1.207031-1.207031v-306.042969c-.035156-32.964844-26.753906-59.6796875-59.71875-59.71875zm68.25 426.5625c.0625 37.695312-30.445312 68.300781-68.136719 68.363281-37.695312.0625-68.300781-30.445312-68.363281-68.136719-.03125-19.460937 8.246094-38.011718 22.753906-50.984374 1.804688-1.617188 2.835938-3.925782 2.839844-6.347657v-309.738281c0-23.558594 19.097656-42.65625 42.65625-42.65625s42.65625 19.097656 42.65625 42.65625v309.738281c.003906 2.421875 1.035156 4.730469 2.839844 6.347657 14.441406 12.925781 22.714844 31.378906 22.753906 50.757812zm0 0"/><path d="m110.90625 382.277344v-322.558594c0-14.136719-11.457031-25.59375-25.59375-25.59375-14.132812 0-25.59375 11.457031-25.59375 25.59375v322.558594c-24.484375 14.136718-32.871094 45.441406-18.734375 69.925781 14.132813 24.480469 45.441406 32.871094 69.921875 18.734375 24.484375-14.132812 32.871094-45.441406 18.738281-69.921875-4.496093-7.78125-10.957031-14.246094-18.738281-18.738281zm-34.125-322.558594c0-4.710938 3.820312-8.53125 8.53125-8.53125s8.53125 3.820312 8.53125 8.53125v102.375h-17.0625zm8.53125 400.96875c-18.847656-.042969-34.089844-15.355469-34.046875-34.203125.03125-13.507813 8.03125-25.726563 20.398437-31.160156 3.105469-1.359375 5.117188-4.425781 5.117188-7.816407v-208.351562h17.0625v208.351562c.003906 3.390626 2.011719 6.457032 5.121094 7.816407 17.253906 7.582031 25.09375 27.714843 17.511718 44.96875-5.4375 12.367187-17.65625 20.363281-31.164062 20.394531zm0 0"/><path d="m179.15625 315.65625h25.59375v17.0625h-25.59375zm0 0"/><path d="m179.15625 264.46875h51.1875v17.0625h-51.1875zm0 0"/><path d="m179.15625 213.28125h25.59375v17.0625h-25.59375zm0 0"/><path d="m179.15625 162.09375h51.1875v17.0625h-51.1875zm0 0"/><path d="m179.15625 110.90625h25.59375v17.0625h-25.59375zm0 0"/><path d="m179.15625 59.71875h51.1875v17.0625h-51.1875zm0 0"/><path d="m85.3125 443.625v-17.0625h-17.0625c0 9.425781 7.640625 17.0625 17.0625 17.0625zm0 0"/></svg>